<svg width="24" height="7" viewBox="0 0 24 7" fill="none" xmlns="http://www.w3.org/2000/svg">
<path d="M0.75004 5.35482C0.75004 5.0126 0.881735 4.6844 1.11616 4.44242C1.35058 4.20044 1.66852 4.06449 2.00004 4.06449L18.9875 4.06449L17.3625 2.39998C17.1272 2.15701 16.9949 1.82746 16.9949 1.48385C16.9949 1.14023 17.1272 0.810692 17.3625 0.56772C17.5979 0.324747 17.9172 0.188247 18.25 0.188247C18.5829 0.188247 18.9022 0.324747 19.1375 0.56772L22.8875 4.43869C23.061 4.62014 23.1785 4.85055 23.2252 5.10086C23.2719 5.35117 23.2458 5.61016 23.15 5.84514C23.0563 6.08078 22.897 6.28249 22.6924 6.42485C22.4877 6.56722 22.2468 6.64387 22 6.64514L2.00004 6.64514C1.66852 6.64514 1.35058 6.50919 1.11616 6.26721C0.881735 6.02523 0.75004 5.69703 0.75004 5.35482Z" fill="white"/>
</svg>
